<?xml version="1.0" encoding="UTF-8"?>
<svg id="Lag_1" data-name="Lag 1" xmlns="http://www.w3.org/2000/svg" viewBox="0 0 54.64 46.21">
  <defs>
    <style>
      .cls-1 {
        fill: #6b413b;
      }

      .cls-2 {
        stroke-width: 2px;
      }

      .cls-2, .cls-3, .cls-4 {
        fill: none;
        stroke-miterlimit: 10;
      }

      .cls-2, .cls-4 {
        stroke: #000;
      }

      .cls-3 {
        stroke: #0c0707;
      }
    </style>
  </defs>
  <g>
    <polyline class="cls-2" points=".93 14.27 13.3 45.21 38.38 45.21 50.76 14.27"/>
    <polygon class="cls-1" points="12.32 33.16 15.58 41.63 36.1 41.63 39.36 33.16 12.32 33.16"/>
    <path class="cls-2" d="M45.32,29.84c2.84,1.16,5.91,.42,7.35-1.49,1.9-2.51,1.04-7.15-2.82-9.23"/>
  </g>
  <g>
    <line class="cls-3" x1="39.37" y1="11.74" x2="21.13" y2="11.74"/>
    <line class="cls-3" x1="39.37" y1="6.5" x2="21.13" y2="6.5"/>
    <line class="cls-3" x1="28.78" y1="9.12" x2="10.54" y2="9.12"/>
    <rect class="cls-4" x="13.48" y="4.15" width=".97" height=".97"/>
    <rect class="cls-4" x="18.48" y="1.5" width=".71" height="1.06"/>
    <rect class="cls-4" x="31.01" y=".5" width=".76" height=".76"/>
    <rect class="cls-4" x="36.84" y="1.5" width=".91" height=".91"/>
  </g>
  <line class="cls-3" x1="4.26" y1="14.51" x2="47.53" y2="14.51"/>
</svg>