<?xml version="1.0" encoding="UTF-8"?>
<svg id="Lag_1" data-name="Lag 1" xmlns="http://www.w3.org/2000/svg" viewBox="0 0 54.64 45.2">
  <defs>
    <style>
      .cls-1 {
        fill: #6b413b;
      }

      .cls-2 {
        fill: #cecdcd;
      }

      .cls-3 {
        fill: #4b2f2a;
      }

      .cls-4 {
        stroke-width: 2px;
      }

      .cls-4, .cls-5 {
        fill: none;
        stroke: #000;
        stroke-miterlimit: 10;
      }
    </style>
  </defs>
  <g>
    <polyline class="cls-4" points=".93 13.26 13.3 44.2 38.38 44.2 50.76 13.26"/>
    <polygon class="cls-3" points="12.33 32.15 15.58 40.62 36.1 40.62 39.36 32.15 12.33 32.15"/>
    <path class="cls-4" d="M45.32,28.83c2.84,1.16,5.91,.42,7.35-1.49,1.9-2.51,1.04-7.15-2.82-9.23"/>
  </g>
  <path class="cls-2" d="M4.23,13.26l2.54,5.75c12.53-.03,25.07-.07,37.6-.1,.7-1.88,1.4-3.77,2.1-5.65H4.23Z"/>
  <path class="cls-1" d="M6.95,19.85c2.94,6.92,5.89,13.85,8.83,20.77h20.51c2.6-6.92,5.2-13.85,7.8-20.77H6.95Z"/>
  <path class="cls-5" d="M9.57,12.44c-.17-.18-2.07-2.31-1.35-4.11,.18-.46,.67-1.24,3.08-1.99,3.71-1.16,5.53-.24,8.03-.77,1.72-.37,4-1.48,6.34-4.82,1.7,1.52,3.39,3.04,5.09,4.56,1.85,.31,3.35,.38,4.37,.39,2.68,.02,3.61-.39,5.2,.26,.44,.18,2.3,.94,2.63,2.5,.15,.73-.08,1.41-.23,1.86-.38,1.09-1.06,1.79-1.44,2.12"/>
  <path class="cls-5" d="M19.9,9.8c.47-.38,2.2-1.68,4.75-1.67,2.51,.01,4.21,1.28,4.69,1.67"/>
</svg>