<?xml version="1.0" encoding="UTF-8"?>
<svg id="Lag_1" data-name="Lag 1" xmlns="http://www.w3.org/2000/svg" viewBox="0 0 54.64 32.31">
  <defs>
    <style>
      .cls-1 {
        fill: #6b413b;
      }
    </style>
  </defs>
  <path class="cls-1" d="M7.07,8.21c2.89,6.5,5.79,13.01,8.68,19.51h20.17c2.56-6.5,5.11-13.01,7.67-19.51H7.07Z"/>
  <path d="M54.47,9.75c-.5-2.29-2.01-4.26-4.14-5.41l-.34,.63,1.69-4.23-1.86-.74-12.12,30.31H13.98L1.86,0,0,.74l12.63,31.57h26.43l6.14-15.35c.96,.36,1.95,.54,2.91,.54,2.16,0,4.17-.86,5.36-2.44,1.06-1.42,1.42-3.35,1-5.31Zm-2.6,4.1c-1.17,1.55-3.68,2.06-5.93,1.24l3.57-8.91c1.55,.88,2.64,2.33,3.01,4,.29,1.37,.05,2.74-.65,3.67Z"/>
</svg>