<?xml version="1.0" encoding="UTF-8"?>
<svg id="Lag_1" data-name="Lag 1" xmlns="http://www.w3.org/2000/svg" viewBox="0 0 54.65 32.31">
  <defs>
    <style>
      .cls-1 {
        fill: #6b413b;
      }

      .cls-2 {
        stroke: #000;
        stroke-width: 2px;
      }

      .cls-2, .cls-3 {
        fill: none;
        stroke-miterlimit: 10;
      }

      .cls-3 {
        stroke: #010202;
      }
    </style>
  </defs>
  <g>
    <polyline class="cls-2" points=".93 .37 13.31 31.31 38.39 31.31 50.76 .37"/>
    <polygon class="cls-1" points="12.33 19.26 15.59 27.73 36.11 27.73 39.36 19.26 12.33 19.26"/>
    <path class="cls-2" d="M45.33,15.94c2.84,1.16,5.91,.42,7.35-1.49,1.9-2.51,1.04-7.15-2.82-9.23"/>
  </g>
  <polyline class="cls-3" points="8.51 1.5 10.76 3.75 12.95 1.5 15.05 3.75 17.1 1.5 18.8 3.75 21.3 1.5 23.65 3.35 25.7 1.5 27.84 3.4 30.14 1.75 32.54 3.5 34.59 1.8 36.29 3.25 38.79 1.5 41.19 3.1 43.18 1.5"/>
</svg>