<?xml version="1.0" encoding="UTF-8" standalone="no"?>
<!-- Created with Inkscape (http://www.inkscape.org/) -->

<svg
   width="29.831919mm"
   height="32.335781mm"
   viewBox="0 0 29.831919 32.335781"
   version="1.1"
   id="svg5"
   inkscape:version="1.1 (c68e22c387, 2021-05-23)"
   xmlns:inkscape="http://www.inkscape.org/namespaces/inkscape"
   xmlns:sodipodi="http://sodipodi.sourceforge.net/DTD/sodipodi-0.dtd"
   xmlns="http://www.w3.org/2000/svg"
   xmlns:svg="http://www.w3.org/2000/svg">
  <sodipodi:namedview
     id="namedview7"
     pagecolor="#ffffff"
     bordercolor="#666666"
     borderopacity="1.0"
     inkscape:pageshadow="2"
     inkscape:pageopacity="0.0"
     inkscape:pagecheckerboard="0"
     inkscape:document-units="mm"
     showgrid="false"
     fit-margin-top="0"
     fit-margin-left="0"
     fit-margin-right="0"
     fit-margin-bottom="0"
     inkscape:zoom="0.74118967"
     inkscape:cx="-126.14855"
     inkscape:cy="100.51408"
     inkscape:window-width="1920"
     inkscape:window-height="1017"
     inkscape:window-x="-8"
     inkscape:window-y="-8"
     inkscape:window-maximized="1"
     inkscape:current-layer="layer1" />
  <defs
     id="defs2" />
  <g
     inkscape:label="Layer 1"
     inkscape:groupmode="layer"
     id="layer1"
     transform="translate(-106.45423,-121.97995)">
    <g
       id="sb6qdT_00000038377026147787392210000014857511603845749144_"
       transform="matrix(0.26458333,0,0,0.26458333,42.501336,64.757151)">
	<path
   class="st0"
   d="m 262.35,312.03 c -11,0.81 -18.53,3.88 -19.1,7.89 -0.55,3.91 5.67,7.81 8.42,9.53 8.07,5.05 16.17,6.47 35.85,7.23 26.65,1.03 33.8,-0.72 37.44,-1.77 4.73,-1.36 20.33,-5.83 20.42,-12.7 0.05,-3.77 -4.6,-6.92 -8.08,-8.79"
   id="path826" />

	<path
   class="st1"
   d="m 249.92,277.63 c 0.04,3.94 0.5,9.8 2.63,16.49 1.35,4.23 3.54,11.1 9.3,17.37 7.72,8.4 17.29,10.79 21.41,11.76 5.7,1.34 21.82,3.99 35.79,-5.97 7.12,-5.07 10.64,-11.25 12.28,-14.21 6.98,-12.58 6.21,-24.88 5.61,-29.83"
   id="path828" />

	<path
   class="st2"
   d="m 271.97,319.22 c -4.06,0.66 -6.15,1.53 -6.28,2.63 -0.17,1.54 3.57,3.52 11.22,5.94"
   id="path830" />

	<path
   class="st0"
   d="m 337.31,274.73 c 6.1,-0.93 12.13,0.32 14.45,3.86 3.25,4.95 -0.05,15.48 -11.36,21.2"
   id="path832" />

	<path
   class="st2"
   d="m 263.02,269.87 c 7.57,-2.1 14,-3.23 18.68,-3.88 1.07,-0.15 20.41,-2.66 39.35,2.45 3.7,1 8.5,2.59 8.91,5.45 0.26,1.82 -1.35,3.45 -1.95,4.05 -7.38,7.49 -45.48,4.53 -54.48,3.76 -10.72,-2.23 -13.29,-3.99 -13.27,-5.28 0.05,-2.99 14.11,-5.07 17.66,-5.59 9.58,-1.41 17.76,-1.29 23.7,-0.86"
   id="path834" />

	<path
   class="st3"
   d="M 294,229.68"
   id="path836" />

	<path
   class="st3"
   d="m 294,229.68 c 0.71,-0.04 -0.76,-7.12 2.92,-10.7 2.4,-2.34 6.58,-2.78 9.73,-1.46 5.05,2.12 6.01,8.18 6.19,9.63 0.24,2.04 0.09,4.88 -7.48,16.96 -7.05,11.25 -8.93,11.99 -10.38,12 -1.71,0.01 -3.34,-0.96 -8.76,-8.27 -8.41,-11.36 -12.59,-17.14 -11.19,-22.05 0.97,-3.41 4.2,-7.41 8.5,-7.59 4.45,-0.19 7.5,3.83 7.88,4.35"
   id="path838" />

	<ellipse
   cx="294.54999"
   cy="276.14001"
   rx="34.299999"
   ry="7.1599998"
   id="ellipse840" />

</g>
  </g>
  <style
     type="text/css"
     id="style824">
	.st0{fill:none;stroke:#000000;stroke-width:3;stroke-miterlimit:10;}
	.st1{fill:none;stroke:#000000;stroke-width:2;stroke-miterlimit:10;}
	.st2{fill:none;stroke:#000000;stroke-miterlimit:10;}
	.st3{fill:none;stroke:#E73A1E;stroke-miterlimit:10;}
</style>
</svg>
